<svg xmlns="http://www.w3.org/2000/svg" viewBox="0 0 489.29 487.7"><defs><style>.a{fill:#2d7dd2;}.b{fill:#e56353;}.c{fill:#00e990;}.d{fill:#fff;}.e{opacity:0.2;}</style></defs><title>Comaker Logo</title><rect class="a" x="253.67" width="235.62" height="235.62" rx="18.44"/><rect class="b" x="253.32" y="252.08" width="235.62" height="235.62" rx="18.44"/><rect class="c" y="251.17" width="235.62" height="235.62" rx="18.44"/><path class="d" d="M464.59,364.51,455.81,363q-1.17-3.27-2.64-6.38l5.17-7.23a15.65,15.65,0,0,0-1.7-20.27L446.1,318.59A15.67,15.67,0,0,0,435,314a15.51,15.51,0,0,0-9.11,2.93l-7.25,5.16a73.55,73.55,0,0,0-6.82-2.8l-1.45-8.6a15.7,15.7,0,0,0-15.53-13.14h-14.9a15.7,15.7,0,0,0-15.53,13.12l-1.52,8.94a68,68,0,0,0-6.36,2.68l-7.12-5.14a15.73,15.73,0,0,0-20.31,1.7l-10.56,10.53a15.7,15.7,0,0,0-1.7,20.27l5.25,7.38q-1.46,3.12-2.61,6.41l-8.6,1.45a15.71,15.71,0,0,0-13.14,15.53v14.9a15.71,15.71,0,0,0,13.13,15.53l8.93,1.52q1.19,3.24,2.68,6.36l-5.11,7.11a15.64,15.64,0,0,0,1.7,20.27l10.54,10.54a15.65,15.65,0,0,0,20.23,1.7l7.38-5.25c1.94.9,3.95,1.73,6,2.47l1.46,8.77a15.7,15.7,0,0,0,15.53,13.14h14.94a15.7,15.7,0,0,0,15.53-13.13l1.49-8.77c2.17-.78,4.3-1.67,6.38-2.64l7.2,5.15A15.73,15.73,0,0,0,446,456.38l10.55-10.55a15.71,15.71,0,0,0,1.7-20.27l-5.18-7.26a68.77,68.77,0,0,0,2.65-6.37l8.77-1.46a15.71,15.71,0,0,0,13.14-15.54V380.07A15.55,15.55,0,0,0,464.59,364.51Zm2.51,30.42a5.18,5.18,0,0,1-4.33,5.14L451.15,402a5.68,5.68,0,0,0-4.52,3.95,61.27,61.27,0,0,1-4.21,10.16,5.68,5.68,0,0,0,.41,5.95l6.85,9.62a5.19,5.19,0,0,1-.57,6.7l-10.54,10.54a5.16,5.16,0,0,1-6.69.57l-9.58-6.84a5.65,5.65,0,0,0-6-.42,61.83,61.83,0,0,1-10.17,4.21,5.67,5.67,0,0,0-3.92,4.49l-2,11.64a5.19,5.19,0,0,1-5.13,4.34H380.19a5.19,5.19,0,0,1-5.13-4.33L373.13,451a5.72,5.72,0,0,0-3.92-4.51,61.76,61.76,0,0,1-9.85-4,5.59,5.59,0,0,0-2.63-.65,5.74,5.74,0,0,0-3.31,1.06l-9.74,6.94a5,5,0,0,1-3,.95,5.09,5.09,0,0,1-3.66-1.53l-10.57-10.56a5.15,5.15,0,0,1-.56-6.66l6.81-9.47a5.67,5.67,0,0,0,.4-6,60.12,60.12,0,0,1-4.26-10.12,5.7,5.7,0,0,0-4.48-3.9l-11.78-2a5.19,5.19,0,0,1-4.35-5.13v-14.9a5.19,5.19,0,0,1,4.35-5.13l11.48-1.94a5.68,5.68,0,0,0,4.51-4,61,61,0,0,1,4.14-10.18,5.71,5.71,0,0,0-.41-5.94l-6.92-9.72a5.19,5.19,0,0,1,.55-6.7l10.58-10.54,0,0a5,5,0,0,1,3.64-1.5,5.1,5.1,0,0,1,3,.95l9.52,6.85a5.67,5.67,0,0,0,6,.4,59.54,59.54,0,0,1,10.11-4.26,5.71,5.71,0,0,0,3.91-4.49l2-11.78a5.19,5.19,0,0,1,5.13-4.34h14.9a5.19,5.19,0,0,1,5.13,4.35l1.94,11.48a5.67,5.67,0,0,0,4,4.51,61.51,61.51,0,0,1,10.56,4.34,5.66,5.66,0,0,0,5.95-.41l9.64-6.86a4.94,4.94,0,0,1,3-1,5.06,5.06,0,0,1,3.67,1.53l10.56,10.56a5.14,5.14,0,0,1,.56,6.67l-6.86,9.59a5.71,5.71,0,0,0-.41,6A61.86,61.86,0,0,1,446.71,369a5.68,5.68,0,0,0,4.49,3.92l11.62,2h0A5.05,5.05,0,0,1,467.1,380Z" transform="translate(-16.55 -17.59)"/><path class="d" d="M387.68,352.5a35,35,0,1,0,35,35A35,35,0,0,0,387.68,352.5Zm0,59.43a24.45,24.45,0,1,1,24.44-24.44A24.47,24.47,0,0,1,387.68,411.93Z" transform="translate(-16.55 -17.59)"/><g class="e"><path d="M327.76,300.16V474.81a12.07,12.07,0,0,1-12.06,12.06,12,12,0,0,1-12.1-12.06V300.16a12.08,12.08,0,1,1,24.16,0Z" transform="translate(-16.55 -17.59)"/><path d="M399.76,300.16V474.81a12.07,12.07,0,0,1-12.06,12.06,12,12,0,0,1-12.1-12.06V300.16a12.08,12.08,0,1,1,24.16,0Z" transform="translate(-16.55 -17.59)"/><path d="M471.76,300.16V474.81a12.07,12.07,0,0,1-12.06,12.06,12,12,0,0,1-12.1-12.06V300.16a12.08,12.08,0,1,1,24.16,0Z" transform="translate(-16.55 -17.59)"/></g><g class="e"><path d="M328.11,48.08V222.73a12.07,12.07,0,0,1-12.06,12.06A12,12,0,0,1,304,222.73V48.08a12.08,12.08,0,1,1,24.16,0Z" transform="translate(-16.55 -17.59)"/><path d="M400.11,48.08V222.73a12.06,12.06,0,0,1-12.05,12.06,12.41,12.41,0,0,1-8.59-3.52,12.28,12.28,0,0,1-3.51-8.54V48.08a12.08,12.08,0,1,1,24.15,0Z" transform="translate(-16.55 -17.59)"/><path d="M472.12,48.08V222.73a12.07,12.07,0,0,1-12.06,12.06A12,12,0,0,1,448,222.73V48.08a12.08,12.08,0,1,1,24.16,0Z" transform="translate(-16.55 -17.59)"/></g><g class="e"><path d="M74.44,299.25V473.9A12.07,12.07,0,0,1,62.38,486a12,12,0,0,1-12.1-12.06V299.25a12.08,12.08,0,1,1,24.16,0Z" transform="translate(-16.55 -17.59)"/><path d="M146.44,299.25V473.9A12.07,12.07,0,0,1,134.38,486a12,12,0,0,1-12.1-12.06V299.25a12.08,12.08,0,1,1,24.16,0Z" transform="translate(-16.55 -17.59)"/><path d="M218.44,299.25V473.9A12.06,12.06,0,0,1,206.39,486a12,12,0,0,1-12.1-12.06V299.25a12.08,12.08,0,1,1,24.15,0Z" transform="translate(-16.55 -17.59)"/></g></svg>